<svg width="20" height="21" viewBox="0 0 20 21" fill="none" xmlns="http://www.w3.org/2000/svg">
<path d="M5.9375 5.78126H12.5625C12.7174 6.54003 13.1485 7.21427 13.7722 7.67326C14.396 8.13224 15.168 8.34327 15.9385 8.26543C16.709 8.1876 17.4231 7.82644 17.9425 7.25198C18.4618 6.67752 18.7494 5.93068 18.7494 5.15626C18.7494 4.38183 18.4618 3.635 17.9425 3.06054C17.4231 2.48608 16.709 2.12492 15.9385 2.04708C15.168 1.96925 14.396 2.18028 13.7722 2.63926C13.1485 3.09824 12.7174 3.77248 12.5625 4.53126H5.9375C5.02582 4.53126 4.15148 4.89342 3.50682 5.53808C2.86217 6.18273 2.5 7.05708 2.5 7.96876C2.5 8.88044 2.86217 9.75478 3.50682 10.3994C4.15148 11.0441 5.02582 11.4063 5.9375 11.4063H12.8125C13.3927 11.4063 13.9491 11.6367 14.3593 12.047C14.7695 12.4572 15 13.0136 15 13.5938C15 14.1739 14.7695 14.7303 14.3593 15.1406C13.9491 15.5508 13.3927 15.7813 12.8125 15.7813H7.4375C7.28262 15.0225 6.85151 14.3482 6.22776 13.8893C5.60401 13.4303 4.83205 13.2192 4.06155 13.2971C3.29105 13.3749 2.57689 13.7361 2.05754 14.3105C1.53819 14.885 1.25064 15.6318 1.25064 16.4063C1.25064 17.1807 1.53819 17.9275 2.05754 18.502C2.57689 19.0764 3.29105 19.4376 4.06155 19.5154C4.83205 19.5933 5.60401 19.3822 6.22776 18.9233C6.85151 18.4643 7.28262 17.79 7.4375 17.0313H12.8125C13.7242 17.0313 14.5985 16.6691 15.2432 16.0244C15.8878 15.3798 16.25 14.5054 16.25 13.5938C16.25 12.6821 15.8878 11.8077 15.2432 11.1631C14.5985 10.5184 13.7242 10.1563 12.8125 10.1563H5.9375C5.35734 10.1563 4.80094 9.92579 4.39071 9.51555C3.98047 9.10532 3.75 8.54892 3.75 7.96876C3.75 7.3886 3.98047 6.8322 4.39071 6.42196C4.80094 6.01172 5.35734 5.78126 5.9375 5.78126ZM15.625 3.28126C15.9958 3.28126 16.3584 3.39122 16.6667 3.59725C16.975 3.80328 17.2154 4.09611 17.3573 4.43873C17.4992 4.78134 17.5363 5.15834 17.464 5.52205C17.3916 5.88577 17.2131 6.21986 16.9508 6.48208C16.6886 6.74431 16.3545 6.92288 15.9908 6.99523C15.6271 7.06758 15.2501 7.03045 14.9075 6.88853C14.5649 6.74662 14.272 6.50629 14.066 6.19795C13.86 5.88961 13.75 5.5271 13.75 5.15626C13.75 4.65898 13.9475 4.18206 14.2992 3.83043C14.6508 3.4788 15.1277 3.28126 15.625 3.28126ZM4.375 18.2813C4.00416 18.2813 3.64165 18.1713 3.33331 17.9653C3.02497 17.7592 2.78464 17.4664 2.64273 17.1238C2.50081 16.7812 2.46368 16.4042 2.53603 16.0405C2.60838 15.6767 2.78695 15.3427 3.04918 15.0804C3.3114 14.8182 3.64549 14.6396 4.00921 14.5673C4.37292 14.4949 4.74992 14.5321 5.09253 14.674C5.43515 14.8159 5.72798 15.0562 5.93401 15.3646C6.14004 15.6729 6.25 16.0354 6.25 16.4063C6.25 16.9035 6.05246 17.3805 5.70083 17.7321C5.3492 18.0837 4.87228 18.2813 4.375 18.2813Z" fill="#5F9605"/>
</svg>
