<svg width="17" height="17" viewBox="0 0 17 17" fill="none" xmlns="http://www.w3.org/2000/svg">
<path d="M11.2147 7.74609L10.5919 6.18894C10.4814 5.91005 10.2894 5.67092 10.0409 5.50274C9.7925 5.33456 9.49915 5.24513 9.19914 5.24609H7.15324C6.88131 5.24613 6.61449 5.32005 6.38129 5.45994L3.87614 6.96289V9.74609H4.87614V7.52929L6.37614 6.62929V12.5947L4.64529 15.1914L5.47734 15.7461L7.37614 12.8974V6.24609H9.19914C9.29915 6.24579 9.39692 6.27563 9.47971 6.33172C9.5625 6.38781 9.62646 6.46756 9.66324 6.56054L10.5375 8.74609H13.3761V7.74609H11.2147Z" fill="#64698B"/>
<path d="M8.90164 9.90409L9.87614 12.8271V15.7461H10.8761V12.6651L9.85064 9.58809L8.90164 9.90409Z" fill="#64698B"/>
<path d="M8.62614 4.74609C8.28003 4.74609 7.94168 4.64346 7.6539 4.45117C7.36611 4.25887 7.14181 3.98556 7.00936 3.66579C6.8769 3.34602 6.84225 2.99415 6.90977 2.65469C6.97729 2.31522 7.14397 2.0034 7.38871 1.75866C7.63345 1.51392 7.94527 1.34724 8.28474 1.27972C8.6242 1.2122 8.97607 1.24685 9.29584 1.37931C9.61561 1.51176 9.88892 1.73606 10.0812 2.02385C10.2735 2.31163 10.3761 2.64998 10.3761 2.99609C10.3756 3.46005 10.191 3.90485 9.86297 4.23292C9.5349 4.56099 9.0901 4.74554 8.62614 4.74609ZM8.62614 2.24609C8.47781 2.24609 8.3328 2.29008 8.20947 2.37249C8.08613 2.4549 7.99 2.57204 7.93323 2.70908C7.87647 2.84613 7.86162 2.99693 7.89056 3.14241C7.91949 3.2879 7.99092 3.42154 8.09581 3.52642C8.2007 3.63131 8.33434 3.70274 8.47983 3.73168C8.62531 3.76062 8.77611 3.74577 8.91316 3.689C9.0502 3.63224 9.16734 3.53611 9.24975 3.41277C9.33216 3.28944 9.37614 3.14443 9.37614 2.99609C9.37592 2.79725 9.29683 2.60662 9.15623 2.46601C9.01562 2.32541 8.82499 2.24632 8.62614 2.24609Z" fill="#64698B"/>
</svg>
