<svg width="26" height="19" viewBox="0 0 26 19" fill="none" xmlns="http://www.w3.org/2000/svg">
<path d="M25.2385 7.70425L18.3119 5.21548L15.4172 1.57983C15.1654 1.27205 14.8482 1.0242 14.4887 0.854277C14.1292 0.68435 13.7363 0.596607 13.3387 0.597418H6.17586C5.73784 0.597236 5.30641 0.704192 4.9192 0.908964C4.53198 1.11374 4.20073 1.41011 3.95431 1.77224L1.52547 5.34053C1.01936 6.08319 0.748941 6.96121 0.749536 7.85993V14.93C0.749536 15.1676 0.843913 15.3955 1.01191 15.5635C1.1799 15.7314 1.40775 15.8258 1.64532 15.8258H3.56419C3.75952 16.5942 4.20534 17.2756 4.8312 17.7622C5.45705 18.2489 6.22725 18.5131 7.02006 18.5131C7.81286 18.5131 8.58306 18.2489 9.20891 17.7622C9.83477 17.2756 10.2806 16.5942 10.4759 15.8258H16.1052C16.3006 16.5942 16.7464 17.2756 17.3722 17.7622C17.9981 18.2489 18.7683 18.5131 19.5611 18.5131C20.3539 18.5131 21.1241 18.2489 21.75 17.7622C22.3758 17.2756 22.8216 16.5942 23.017 15.8258H24.9358C25.1734 15.8258 25.4013 15.7314 25.5692 15.5635C25.7372 15.3955 25.8316 15.1676 25.8316 14.93V8.54754C25.8317 8.36301 25.7747 8.18296 25.6685 8.03202C25.5624 7.88107 25.4122 7.7666 25.2385 7.70425ZM7.02006 16.7216C6.66571 16.7216 6.31933 16.6165 6.02471 16.4197C5.73008 16.2228 5.50045 15.943 5.36485 15.6156C5.22925 15.2883 5.19377 14.928 5.2629 14.5805C5.33203 14.233 5.50266 13.9138 5.75322 13.6632C6.00378 13.4126 6.323 13.242 6.67054 13.1729C7.01807 13.1038 7.37829 13.1392 7.70566 13.2748C8.03303 13.4104 8.31284 13.6401 8.5097 13.9347C8.70656 14.2293 8.81163 14.5757 8.81163 14.93C8.81099 15.405 8.62203 15.8603 8.28618 16.1962C7.95034 16.532 7.49501 16.721 7.02006 16.7216ZM19.5611 16.7216C19.2068 16.7216 18.8604 16.6165 18.5657 16.4197C18.2711 16.2228 18.0415 15.943 17.9059 15.6156C17.7703 15.2883 17.7348 14.928 17.8039 14.5805C17.8731 14.233 18.0437 13.9138 18.2943 13.6632C18.5448 13.4126 18.864 13.242 19.2116 13.1729C19.5591 13.1038 19.9193 13.1392 20.2467 13.2748C20.5741 13.4104 20.8539 13.6401 21.0507 13.9347C21.2476 14.2293 21.3527 14.5757 21.3527 14.93C21.3521 15.405 21.1631 15.8604 20.8273 16.1962C20.4914 16.5321 20.0361 16.721 19.5611 16.7216ZM24.04 14.0342H23.017C22.8216 13.2659 22.3758 12.5845 21.75 12.0979C21.1241 11.6112 20.3539 11.347 19.5611 11.347C18.7683 11.347 17.9981 11.6112 17.3722 12.0979C16.7464 12.5845 16.3006 13.2659 16.1052 14.0342H10.4759C10.2806 13.2659 9.83477 12.5845 9.20891 12.0979C8.58306 11.6112 7.81286 11.347 7.02006 11.347C6.22725 11.347 5.45705 11.6112 4.8312 12.0979C4.20534 12.5845 3.75952 13.2659 3.56419 14.0342H2.54111V7.85993C2.54091 7.32041 2.70323 6.79333 3.00692 6.34739L5.43541 2.7809C5.51749 2.66013 5.62789 2.56128 5.75695 2.49297C5.88602 2.42466 6.02984 2.38896 6.17586 2.38899H13.3387C13.4692 2.38843 13.5982 2.41659 13.7166 2.47147C13.8349 2.52635 13.9398 2.60661 14.0237 2.70655L17.0688 6.53022C17.1725 6.66039 17.3103 6.75915 17.4668 6.81544L24.04 9.17737V14.0342Z" fill="#64698B"/>
</svg>
